<mxfile host="app.diagrams.net" agent="Mozilla/5.0 (Macintosh; Intel Mac OS X 10_15_7) AppleWebKit/537.36 (KHTML, like Gecko) Chrome/138.0.0.0 Safari/537.36" version="28.0.3">
  <diagram name="Page-1" id="gxR2FTt5Hdwa4QH0Jlns">
    <mxGraphModel dx="1130" dy="647" grid="1" gridSize="10" guides="1" tooltips="1" connect="1" arrows="1" fold="1" page="1" pageScale="1" pageWidth="827" pageHeight="1169" math="0" shadow="0">
      <root>
        <mxCell id="0" />
        <mxCell id="1" parent="0" />
        <mxCell id="491mZs6GS_H7Q8-jerja-6" value="&lt;font style=&quot;font-size: 8px;&quot;&gt;VPC&lt;/font&gt;&lt;div&gt;&lt;font style=&quot;font-size: 8px;&quot;&gt;10.0.0.0/16&lt;/font&gt;&lt;/div&gt;" style="sketch=0;outlineConnect=0;html=1;whiteSpace=wrap;fontSize=9;fontStyle=0;shape=mxgraph.aws4.group;grIcon=mxgraph.aws4.group_vpc;strokeColor=#82b366;fillColor=none;verticalAlign=top;align=left;spacingLeft=30;dashed=0;" parent="1" vertex="1">
          <mxGeometry x="400" y="40" width="770" height="420" as="geometry" />
        </mxCell>
        <mxCell id="f_mdxcud1vT5GyGsRlhA-64" value="Availability Zone 2" style="fillColor=none;strokeColor=#147EBA;dashed=1;verticalAlign=top;fontStyle=0;fontColor=#147EBA;whiteSpace=wrap;html=1;spacing=137;" parent="1" vertex="1">
          <mxGeometry x="580" y="277" width="519" height="160" as="geometry" />
        </mxCell>
        <mxCell id="f_mdxcud1vT5GyGsRlhA-63" value="Availability Zone 1" style="fillColor=none;strokeColor=#147EBA;dashed=1;verticalAlign=top;fontStyle=0;fontColor=#147EBA;whiteSpace=wrap;html=1;" parent="1" vertex="1">
          <mxGeometry x="580" y="56" width="520" height="160" as="geometry" />
        </mxCell>
        <mxCell id="491mZs6GS_H7Q8-jerja-5" value="Region: eu-west-1" style="points=[[0,0],[0.25,0],[0.5,0],[0.75,0],[1,0],[1,0.25],[1,0.5],[1,0.75],[1,1],[0.75,1],[0.5,1],[0.25,1],[0,1],[0,0.75],[0,0.5],[0,0.25]];outlineConnect=0;gradientColor=none;html=1;whiteSpace=wrap;fontSize=10;fontStyle=0;container=0;pointerEvents=0;collapsible=0;recursiveResize=0;shape=mxgraph.aws4.group;grIcon=mxgraph.aws4.group_region;strokeColor=#00A4A6;fillColor=none;verticalAlign=top;align=left;spacingLeft=30;fontColor=#147EBA;dashed=1;" parent="1" vertex="1">
          <mxGeometry x="370" y="10" width="820" height="520" as="geometry" />
        </mxCell>
        <mxCell id="491mZs6GS_H7Q8-jerja-22" value="Public subnet - 10.0.1.0/24" style="points=[[0,0],[0.25,0],[0.5,0],[0.75,0],[1,0],[1,0.25],[1,0.5],[1,0.75],[1,1],[0.75,1],[0.5,1],[0.25,1],[0,1],[0,0.75],[0,0.5],[0,0.25]];outlineConnect=0;gradientColor=none;html=1;fontSize=9;fontStyle=0;container=1;pointerEvents=0;collapsible=0;recursiveResize=0;shape=mxgraph.aws4.group;grIcon=mxgraph.aws4.group_security_group;grStroke=0;strokeColor=#7AA116;fillColor=#F2F6E8;verticalAlign=top;align=left;spacingLeft=30;fontColor=#248814;dashed=0;whiteSpace=wrap;" parent="1" vertex="1">
          <mxGeometry x="590" y="86" width="260" height="120" as="geometry" />
        </mxCell>
        <mxCell id="491mZs6GS_H7Q8-jerja-1" value="" style="sketch=0;outlineConnect=0;fontColor=#232F3E;gradientColor=none;fillColor=#232F3D;strokeColor=none;dashed=0;verticalLabelPosition=bottom;verticalAlign=top;align=center;html=1;fontSize=12;fontStyle=0;aspect=fixed;pointerEvents=1;shape=mxgraph.aws4.users;" parent="1" vertex="1">
          <mxGeometry x="130" y="226" width="40" height="40" as="geometry" />
        </mxCell>
        <mxCell id="491mZs6GS_H7Q8-jerja-40" style="edgeStyle=orthogonalEdgeStyle;rounded=0;orthogonalLoop=1;jettySize=auto;html=1;" parent="1" source="491mZs6GS_H7Q8-jerja-2" target="491mZs6GS_H7Q8-jerja-7" edge="1">
          <mxGeometry relative="1" as="geometry" />
        </mxCell>
        <mxCell id="f_mdxcud1vT5GyGsRlhA-16" value="80/443" style="edgeLabel;html=1;align=center;verticalAlign=middle;resizable=0;points=[];" parent="491mZs6GS_H7Q8-jerja-40" vertex="1" connectable="0">
          <mxGeometry x="-0.3022" y="3" relative="1" as="geometry">
            <mxPoint x="6" y="3" as="offset" />
          </mxGeometry>
        </mxCell>
        <mxCell id="491mZs6GS_H7Q8-jerja-72" style="edgeStyle=orthogonalEdgeStyle;rounded=0;orthogonalLoop=1;jettySize=auto;html=1;entryX=0;entryY=0.5;entryDx=0;entryDy=0;entryPerimeter=0;" parent="1" source="491mZs6GS_H7Q8-jerja-1" target="491mZs6GS_H7Q8-jerja-2" edge="1">
          <mxGeometry relative="1" as="geometry" />
        </mxCell>
        <mxCell id="f_mdxcud1vT5GyGsRlhA-36" value="HTTP/S" style="edgeLabel;html=1;align=center;verticalAlign=middle;resizable=0;points=[];" parent="491mZs6GS_H7Q8-jerja-72" vertex="1" connectable="0">
          <mxGeometry x="-0.4179" y="-2" relative="1" as="geometry">
            <mxPoint x="13" y="-2" as="offset" />
          </mxGeometry>
        </mxCell>
        <mxCell id="f_mdxcud1vT5GyGsRlhA-1" value="Client" style="text;html=1;align=center;verticalAlign=middle;resizable=0;points=[];autosize=1;strokeColor=none;fillColor=none;" parent="1" vertex="1">
          <mxGeometry x="125" y="260" width="50" height="30" as="geometry" />
        </mxCell>
        <mxCell id="491mZs6GS_H7Q8-jerja-44" value="Private subnet - 10.0.3.0/24" style="points=[[0,0],[0.25,0],[0.5,0],[0.75,0],[1,0],[1,0.25],[1,0.5],[1,0.75],[1,1],[0.75,1],[0.5,1],[0.25,1],[0,1],[0,0.75],[0,0.5],[0,0.25]];outlineConnect=0;gradientColor=none;html=1;whiteSpace=wrap;fontSize=9;fontStyle=0;container=1;pointerEvents=0;collapsible=0;recursiveResize=0;shape=mxgraph.aws4.group;grIcon=mxgraph.aws4.group_security_group;grStroke=0;strokeColor=#00A4A6;fillColor=#E6F6F7;verticalAlign=top;align=left;spacingLeft=30;fontColor=#147EBA;dashed=0;" parent="1" vertex="1">
          <mxGeometry x="859" y="86" width="231" height="120" as="geometry" />
        </mxCell>
        <mxCell id="491mZs6GS_H7Q8-jerja-59" value="" style="sketch=0;points=[[0,0,0],[0.25,0,0],[0.5,0,0],[0.75,0,0],[1,0,0],[0,1,0],[0.25,1,0],[0.5,1,0],[0.75,1,0],[1,1,0],[0,0.25,0],[0,0.5,0],[0,0.75,0],[1,0.25,0],[1,0.5,0],[1,0.75,0]];outlineConnect=0;fontColor=#232F3E;fillColor=#A680B8;strokeColor=#ffffff;dashed=0;verticalLabelPosition=bottom;verticalAlign=top;align=center;html=1;fontSize=12;fontStyle=0;aspect=fixed;shape=mxgraph.aws4.resourceIcon;resIcon=mxgraph.aws4.elasticache;" parent="491mZs6GS_H7Q8-jerja-44" vertex="1">
          <mxGeometry x="126" y="44" width="35" height="35" as="geometry" />
        </mxCell>
        <mxCell id="f_mdxcud1vT5GyGsRlhA-9" style="edgeStyle=orthogonalEdgeStyle;rounded=0;orthogonalLoop=1;jettySize=auto;html=1;" parent="1" source="f_mdxcud1vT5GyGsRlhA-7" target="f_mdxcud1vT5GyGsRlhA-5" edge="1">
          <mxGeometry relative="1" as="geometry" />
        </mxCell>
        <mxCell id="f_mdxcud1vT5GyGsRlhA-33" value="" style="sketch=0;points=[[0,0,0],[0.25,0,0],[0.5,0,0],[0.75,0,0],[1,0,0],[0,1,0],[0.25,1,0],[0.5,1,0],[0.75,1,0],[1,1,0],[0,0.25,0],[0,0.5,0],[0,0.75,0],[1,0.25,0],[1,0.5,0],[1,0.75,0]];outlineConnect=0;fontColor=#232F3E;fillColor=#DD344C;strokeColor=#ffffff;dashed=0;verticalLabelPosition=bottom;verticalAlign=top;align=center;html=1;fontSize=12;fontStyle=0;aspect=fixed;shape=mxgraph.aws4.resourceIcon;resIcon=mxgraph.aws4.cognito;" parent="1" vertex="1">
          <mxGeometry x="175" y="115" width="42" height="42" as="geometry" />
        </mxCell>
        <mxCell id="f_mdxcud1vT5GyGsRlhA-34" style="edgeStyle=orthogonalEdgeStyle;rounded=0;orthogonalLoop=1;jettySize=auto;html=1;entryX=0.5;entryY=1;entryDx=0;entryDy=0;entryPerimeter=0;startArrow=classic;startFill=1;" parent="1" source="491mZs6GS_H7Q8-jerja-1" target="f_mdxcud1vT5GyGsRlhA-33" edge="1">
          <mxGeometry relative="1" as="geometry">
            <Array as="points">
              <mxPoint x="150" y="190" />
              <mxPoint x="196" y="190" />
            </Array>
          </mxGeometry>
        </mxCell>
        <mxCell id="f_mdxcud1vT5GyGsRlhA-38" value="" style="sketch=0;points=[[0,0,0],[0.25,0,0],[0.5,0,0],[0.75,0,0],[1,0,0],[0,1,0],[0.25,1,0],[0.5,1,0],[0.75,1,0],[1,1,0],[0,0.25,0],[0,0.5,0],[0,0.75,0],[1,0.25,0],[1,0.5,0],[1,0.75,0]];outlineConnect=0;fontColor=#232F3E;fillColor=#DD344C;strokeColor=#ffffff;dashed=0;verticalLabelPosition=bottom;verticalAlign=top;align=center;html=1;fontSize=12;fontStyle=0;aspect=fixed;shape=mxgraph.aws4.resourceIcon;resIcon=mxgraph.aws4.identity_and_access_management;" parent="1" vertex="1">
          <mxGeometry x="430" y="470" width="40" height="40" as="geometry" />
        </mxCell>
        <mxCell id="f_mdxcud1vT5GyGsRlhA-42" value="AWS&lt;div&gt;Cognito&lt;/div&gt;" style="text;html=1;align=center;verticalAlign=middle;resizable=0;points=[];autosize=1;strokeColor=none;fillColor=none;fontSize=8;" parent="1" vertex="1">
          <mxGeometry x="170" y="86" width="50" height="30" as="geometry" />
        </mxCell>
        <mxCell id="f_mdxcud1vT5GyGsRlhA-8" style="edgeStyle=orthogonalEdgeStyle;rounded=0;orthogonalLoop=1;jettySize=auto;html=1;endArrow=none;startFill=0;" parent="1" source="491mZs6GS_H7Q8-jerja-7" target="f_mdxcud1vT5GyGsRlhA-7" edge="1">
          <mxGeometry relative="1" as="geometry" />
        </mxCell>
        <mxCell id="491mZs6GS_H7Q8-jerja-7" value="" style="sketch=0;outlineConnect=0;fontColor=#232F3E;gradientColor=none;fillColor=#8C4FFF;strokeColor=none;dashed=0;verticalLabelPosition=bottom;verticalAlign=top;align=center;html=1;fontSize=12;fontStyle=0;aspect=fixed;pointerEvents=1;shape=mxgraph.aws4.internet_gateway;" parent="1" vertex="1">
          <mxGeometry x="381" y="227" width="37.5" height="37.5" as="geometry" />
        </mxCell>
        <mxCell id="491mZs6GS_H7Q8-jerja-66" value="" style="outlineConnect=0;dashed=0;verticalLabelPosition=bottom;verticalAlign=top;align=center;html=1;shape=mxgraph.aws3.ecr;fillColor=#F58534;gradientColor=none;" parent="1" vertex="1">
          <mxGeometry x="783" y="470" width="40" height="40" as="geometry" />
        </mxCell>
        <mxCell id="f_mdxcud1vT5GyGsRlhA-6" value="" style="sketch=0;points=[[0,0,0],[0.25,0,0],[0.5,0,0],[0.75,0,0],[1,0,0],[0,1,0],[0.25,1,0],[0.5,1,0],[0.75,1,0],[1,1,0],[0,0.25,0],[0,0.5,0],[0,0.75,0],[1,0.25,0],[1,0.5,0],[1,0.75,0]];outlineConnect=0;fontColor=#232F3E;fillColor=#DD344C;strokeColor=#ffffff;dashed=0;verticalLabelPosition=bottom;verticalAlign=top;align=center;html=1;fontSize=12;fontStyle=0;aspect=fixed;shape=mxgraph.aws4.resourceIcon;resIcon=mxgraph.aws4.certificate_manager_3;" parent="1" vertex="1">
          <mxGeometry x="446.25" y="140" width="40" height="40" as="geometry" />
        </mxCell>
        <mxCell id="f_mdxcud1vT5GyGsRlhA-10" style="edgeStyle=orthogonalEdgeStyle;rounded=0;orthogonalLoop=1;jettySize=auto;html=1;startArrow=classic;startFill=1;" parent="1" source="f_mdxcud1vT5GyGsRlhA-6" target="f_mdxcud1vT5GyGsRlhA-7" edge="1">
          <mxGeometry relative="1" as="geometry" />
        </mxCell>
        <mxCell id="491mZs6GS_H7Q8-jerja-67" value="" style="sketch=0;points=[[0,0,0],[0.25,0,0],[0.5,0,0],[0.75,0,0],[1,0,0],[0,1,0],[0.25,1,0],[0.5,1,0],[0.75,1,0],[1,1,0],[0,0.25,0],[0,0.5,0],[0,0.75,0],[1,0.25,0],[1,0.5,0],[1,0.75,0]];points=[[0,0,0],[0.25,0,0],[0.5,0,0],[0.75,0,0],[1,0,0],[0,1,0],[0.25,1,0],[0.5,1,0],[0.75,1,0],[1,1,0],[0,0.25,0],[0,0.5,0],[0,0.75,0],[1,0.25,0],[1,0.5,0],[1,0.75,0]];outlineConnect=0;fontColor=#232F3E;fillColor=#E7157B;strokeColor=#ffffff;dashed=0;verticalLabelPosition=bottom;verticalAlign=top;align=center;html=1;fontSize=12;fontStyle=0;aspect=fixed;shape=mxgraph.aws4.resourceIcon;resIcon=mxgraph.aws4.cloudwatch_2;" parent="1" vertex="1">
          <mxGeometry x="731" y="470" width="40" height="40" as="geometry" />
        </mxCell>
        <mxCell id="491mZs6GS_H7Q8-jerja-68" value="" style="sketch=0;points=[[0,0,0],[0.25,0,0],[0.5,0,0],[0.75,0,0],[1,0,0],[0,1,0],[0.25,1,0],[0.5,1,0],[0.75,1,0],[1,1,0],[0,0.25,0],[0,0.5,0],[0,0.75,0],[1,0.25,0],[1,0.5,0],[1,0.75,0]];outlineConnect=0;fontColor=#232F3E;fillColor=#DD344C;strokeColor=#ffffff;dashed=0;verticalLabelPosition=bottom;verticalAlign=top;align=center;html=1;fontSize=12;fontStyle=0;aspect=fixed;shape=mxgraph.aws4.resourceIcon;resIcon=mxgraph.aws4.secrets_manager;" parent="1" vertex="1">
          <mxGeometry x="670" y="470" width="40" height="40" as="geometry" />
        </mxCell>
        <mxCell id="f_mdxcud1vT5GyGsRlhA-43" value="" style="group" parent="1" vertex="1" connectable="0">
          <mxGeometry x="550" y="220" width="45" height="70" as="geometry" />
        </mxCell>
        <mxCell id="f_mdxcud1vT5GyGsRlhA-44" value="Public subnet - 10.0.1.0/24" style="points=[[0,0],[0.25,0],[0.5,0],[0.75,0],[1,0],[1,0.25],[1,0.5],[1,0.75],[1,1],[0.75,1],[0.5,1],[0.25,1],[0,1],[0,0.75],[0,0.5],[0,0.25]];outlineConnect=0;gradientColor=none;html=1;fontSize=9;fontStyle=0;container=1;pointerEvents=0;collapsible=0;recursiveResize=0;shape=mxgraph.aws4.group;grIcon=mxgraph.aws4.group_security_group;grStroke=0;strokeColor=#7AA116;fillColor=#F2F6E8;verticalAlign=top;align=left;spacingLeft=30;fontColor=#248814;dashed=0;whiteSpace=wrap;" parent="1" vertex="1">
          <mxGeometry x="590" y="290" width="260" height="120" as="geometry" />
        </mxCell>
        <mxCell id="f_mdxcud1vT5GyGsRlhA-46" value="&lt;font style=&quot;font-size: 9px; line-height: 90%;&quot;&gt;Auto Scaling group&lt;/font&gt;" style="points=[[0,0],[0.25,0],[0.5,0],[0.75,0],[1,0],[1,0.25],[1,0.5],[1,0.75],[1,1],[0.75,1],[0.5,1],[0.25,1],[0,1],[0,0.75],[0,0.5],[0,0.25]];outlineConnect=0;gradientColor=none;html=1;whiteSpace=wrap;fontSize=12;fontStyle=0;container=1;pointerEvents=0;collapsible=0;recursiveResize=0;shape=mxgraph.aws4.groupCenter;grIcon=mxgraph.aws4.group_auto_scaling_group;grStroke=1;strokeColor=#D86613;fillColor=none;verticalAlign=top;align=center;fontColor=#D86613;dashed=1;spacingTop=25;" parent="1" vertex="1">
          <mxGeometry x="700" y="110" width="123" height="280" as="geometry" />
        </mxCell>
        <mxCell id="f_mdxcud1vT5GyGsRlhA-52" value="" style="sketch=0;points=[[0,0,0],[0.25,0,0],[0.5,0,0],[0.75,0,0],[1,0,0],[0,1,0],[0.25,1,0],[0.5,1,0],[0.75,1,0],[1,1,0],[0,0.25,0],[0,0.5,0],[0,0.75,0],[1,0.25,0],[1,0.5,0],[1,0.75,0]];outlineConnect=0;fontColor=#232F3E;fillColor=#ED7100;strokeColor=#ffffff;dashed=0;verticalLabelPosition=bottom;verticalAlign=top;align=center;html=1;fontSize=12;fontStyle=0;aspect=fixed;shape=mxgraph.aws4.resourceIcon;resIcon=mxgraph.aws4.ec2;" parent="f_mdxcud1vT5GyGsRlhA-46" vertex="1">
          <mxGeometry x="44" y="51" width="35" height="35" as="geometry" />
        </mxCell>
        <mxCell id="f_mdxcud1vT5GyGsRlhA-53" value="" style="sketch=0;points=[[0,0,0],[0.25,0,0],[0.5,0,0],[0.75,0,0],[1,0,0],[0,1,0],[0.25,1,0],[0.5,1,0],[0.75,1,0],[1,1,0],[0,0.25,0],[0,0.5,0],[0,0.75,0],[1,0.25,0],[1,0.5,0],[1,0.75,0]];outlineConnect=0;fontColor=#232F3E;fillColor=#ED7100;strokeColor=#ffffff;dashed=0;verticalLabelPosition=bottom;verticalAlign=top;align=center;html=1;fontSize=12;fontStyle=0;aspect=fixed;shape=mxgraph.aws4.resourceIcon;resIcon=mxgraph.aws4.ec2;" parent="f_mdxcud1vT5GyGsRlhA-46" vertex="1">
          <mxGeometry x="44" y="220" width="35" height="35" as="geometry" />
        </mxCell>
        <mxCell id="f_mdxcud1vT5GyGsRlhA-5" value="" style="sketch=0;outlineConnect=0;fontColor=#232F3E;gradientColor=none;fillColor=#8C4FFF;strokeColor=none;dashed=0;verticalLabelPosition=bottom;verticalAlign=top;align=center;html=1;fontSize=12;fontStyle=0;aspect=fixed;pointerEvents=1;shape=mxgraph.aws4.application_load_balancer;" parent="1" vertex="1">
          <mxGeometry x="520" y="226" width="40" height="40" as="geometry" />
        </mxCell>
        <mxCell id="f_mdxcud1vT5GyGsRlhA-65" value="" style="group" parent="1" vertex="1" connectable="0">
          <mxGeometry x="441" y="230.75" width="50" height="46.25" as="geometry" />
        </mxCell>
        <mxCell id="f_mdxcud1vT5GyGsRlhA-39" value="SSL/TLS" style="text;html=1;align=center;verticalAlign=middle;resizable=0;points=[];autosize=1;strokeColor=none;fillColor=none;fontSize=7;" parent="f_mdxcud1vT5GyGsRlhA-65" vertex="1">
          <mxGeometry y="26.25" width="50" height="20" as="geometry" />
        </mxCell>
        <mxCell id="f_mdxcud1vT5GyGsRlhA-7" value="" style="sketch=0;outlineConnect=0;fontColor=#232F3E;gradientColor=none;fillColor=#DD344C;strokeColor=none;dashed=0;verticalLabelPosition=bottom;verticalAlign=top;align=center;html=1;fontSize=12;fontStyle=0;aspect=fixed;pointerEvents=1;shape=mxgraph.aws4.certificate_manager_2;" parent="f_mdxcud1vT5GyGsRlhA-65" vertex="1">
          <mxGeometry x="9" width="32.5" height="30" as="geometry" />
        </mxCell>
        <mxCell id="f_mdxcud1vT5GyGsRlhA-66" value="" style="group" parent="1" vertex="1" connectable="0">
          <mxGeometry x="260" y="226" width="40" height="57" as="geometry" />
        </mxCell>
        <mxCell id="491mZs6GS_H7Q8-jerja-2" value="" style="points=[[0,0,0],[0.25,0,0],[0.5,0,0],[0.75,0,0],[1,0,0],[0,1,0],[0.25,1,0],[0.5,1,0],[0.75,1,0],[1,1,0],[0,0.25,0],[0,0.5,0],[0,0.75,0],[1,0.25,0],[1,0.5,0],[1,0.75,0]];outlineConnect=0;fontColor=#232F3E;fillColor=#8C4FFF;strokeColor=#ffffff;dashed=0;verticalLabelPosition=bottom;verticalAlign=top;align=center;html=1;fontSize=12;fontStyle=0;aspect=fixed;shape=mxgraph.aws4.resourceIcon;resIcon=mxgraph.aws4.route_53;shadow=0;" parent="f_mdxcud1vT5GyGsRlhA-66" vertex="1">
          <mxGeometry width="40" height="40" as="geometry" />
        </mxCell>
        <mxCell id="f_mdxcud1vT5GyGsRlhA-41" value="DNS" style="text;html=1;align=center;verticalAlign=middle;resizable=0;points=[];autosize=1;strokeColor=none;fillColor=none;fontSize=8;" parent="f_mdxcud1vT5GyGsRlhA-66" vertex="1">
          <mxGeometry y="37" width="40" height="20" as="geometry" />
        </mxCell>
        <mxCell id="f_mdxcud1vT5GyGsRlhA-67" style="edgeStyle=orthogonalEdgeStyle;rounded=0;orthogonalLoop=1;jettySize=auto;html=1;entryX=0;entryY=0.5;entryDx=0;entryDy=0;entryPerimeter=0;" parent="1" source="f_mdxcud1vT5GyGsRlhA-5" target="f_mdxcud1vT5GyGsRlhA-51" edge="1">
          <mxGeometry relative="1" as="geometry" />
        </mxCell>
        <mxCell id="f_mdxcud1vT5GyGsRlhA-68" value="3000" style="edgeLabel;html=1;align=center;verticalAlign=middle;resizable=0;points=[];" parent="f_mdxcud1vT5GyGsRlhA-67" vertex="1" connectable="0">
          <mxGeometry x="-0.6219" relative="1" as="geometry">
            <mxPoint x="14" as="offset" />
          </mxGeometry>
        </mxCell>
        <mxCell id="f_mdxcud1vT5GyGsRlhA-51" value="" style="sketch=0;points=[[0,0,0],[0.25,0,0],[0.5,0,0],[0.75,0,0],[1,0,0],[0,1,0],[0.25,1,0],[0.5,1,0],[0.75,1,0],[1,1,0],[0,0.25,0],[0,0.5,0],[0,0.75,0],[1,0.25,0],[1,0.5,0],[1,0.75,0]];outlineConnect=0;fontColor=#232F3E;fillColor=#ED7100;strokeColor=#ffffff;dashed=0;verticalLabelPosition=bottom;verticalAlign=top;align=center;html=1;fontSize=12;fontStyle=0;aspect=fixed;shape=mxgraph.aws4.resourceIcon;resIcon=mxgraph.aws4.ecs;" parent="1" vertex="1">
          <mxGeometry x="620" y="228.5" width="35" height="35" as="geometry" />
        </mxCell>
        <mxCell id="f_mdxcud1vT5GyGsRlhA-73" style="edgeStyle=orthogonalEdgeStyle;rounded=0;orthogonalLoop=1;jettySize=auto;html=1;entryX=0.5;entryY=1;entryDx=0;entryDy=0;entryPerimeter=0;" parent="1" source="f_mdxcud1vT5GyGsRlhA-51" target="f_mdxcud1vT5GyGsRlhA-52" edge="1">
          <mxGeometry relative="1" as="geometry" />
        </mxCell>
        <mxCell id="f_mdxcud1vT5GyGsRlhA-74" style="edgeStyle=orthogonalEdgeStyle;rounded=0;orthogonalLoop=1;jettySize=auto;html=1;entryX=0.5;entryY=0;entryDx=0;entryDy=0;entryPerimeter=0;" parent="1" source="f_mdxcud1vT5GyGsRlhA-51" target="f_mdxcud1vT5GyGsRlhA-53" edge="1">
          <mxGeometry relative="1" as="geometry" />
        </mxCell>
        <mxCell id="tvD9chaPKlekloA3Q7MS-10" style="edgeStyle=orthogonalEdgeStyle;rounded=0;orthogonalLoop=1;jettySize=auto;html=1;entryX=0;entryY=0.5;entryDx=0;entryDy=0;entryPerimeter=0;" edge="1" parent="1" source="f_mdxcud1vT5GyGsRlhA-46" target="491mZs6GS_H7Q8-jerja-53">
          <mxGeometry relative="1" as="geometry">
            <mxPoint x="860" y="148" as="targetPoint" />
            <Array as="points">
              <mxPoint x="850" y="250" />
              <mxPoint x="850" y="148" />
            </Array>
          </mxGeometry>
        </mxCell>
        <mxCell id="tvD9chaPKlekloA3Q7MS-11" value="&lt;font style=&quot;font-size: 9px;&quot;&gt;Redis&lt;/font&gt;" style="text;html=1;align=center;verticalAlign=middle;resizable=0;points=[];autosize=1;strokeColor=none;fillColor=none;" vertex="1" parent="1">
          <mxGeometry x="977" y="157" width="50" height="30" as="geometry" />
        </mxCell>
        <mxCell id="tvD9chaPKlekloA3Q7MS-13" value="" style="group" vertex="1" connectable="0" parent="1">
          <mxGeometry x="888" y="130" width="60" height="67" as="geometry" />
        </mxCell>
        <mxCell id="491mZs6GS_H7Q8-jerja-53" value="" style="sketch=0;points=[[0,0,0],[0.25,0,0],[0.5,0,0],[0.75,0,0],[1,0,0],[0,1,0],[0.25,1,0],[0.5,1,0],[0.75,1,0],[1,1,0],[0,0.25,0],[0,0.5,0],[0,0.75,0],[1,0.25,0],[1,0.5,0],[1,0.75,0]];outlineConnect=0;fontColor=#232F3E;fillColor=#A680B8;strokeColor=#ffffff;dashed=0;verticalLabelPosition=bottom;verticalAlign=top;align=center;html=1;fontSize=12;fontStyle=0;aspect=fixed;shape=mxgraph.aws4.resourceIcon;resIcon=mxgraph.aws4.rds;" parent="tvD9chaPKlekloA3Q7MS-13" vertex="1">
          <mxGeometry x="12" width="35" height="35" as="geometry" />
        </mxCell>
        <mxCell id="tvD9chaPKlekloA3Q7MS-12" value="&lt;div style=&quot;line-height: 90%;&quot;&gt;&lt;font style=&quot;font-size: 9px; line-height: 90%;&quot;&gt;Postgres&lt;/font&gt;&lt;div&gt;&lt;font style=&quot;font-size: 9px; line-height: 90%;&quot;&gt;DB&lt;/font&gt;&lt;/div&gt;&lt;/div&gt;" style="text;html=1;align=center;verticalAlign=middle;resizable=0;points=[];autosize=1;strokeColor=none;fillColor=none;" vertex="1" parent="tvD9chaPKlekloA3Q7MS-13">
          <mxGeometry y="27" width="60" height="40" as="geometry" />
        </mxCell>
        <mxCell id="tvD9chaPKlekloA3Q7MS-14" value="" style="group" vertex="1" connectable="0" parent="1">
          <mxGeometry x="859" y="290" width="230" height="120" as="geometry" />
        </mxCell>
        <mxCell id="f_mdxcud1vT5GyGsRlhA-23" value="Private subnet - 10.0.3.0/24" style="points=[[0,0],[0.25,0],[0.5,0],[0.75,0],[1,0],[1,0.25],[1,0.5],[1,0.75],[1,1],[0.75,1],[0.5,1],[0.25,1],[0,1],[0,0.75],[0,0.5],[0,0.25]];outlineConnect=0;gradientColor=none;html=1;whiteSpace=wrap;fontSize=9;fontStyle=0;container=0;pointerEvents=0;collapsible=0;recursiveResize=0;shape=mxgraph.aws4.group;grIcon=mxgraph.aws4.group_security_group;grStroke=0;strokeColor=#00A4A6;fillColor=#E6F6F7;verticalAlign=top;align=left;spacingLeft=30;fontColor=#147EBA;dashed=0;" parent="tvD9chaPKlekloA3Q7MS-14" vertex="1">
          <mxGeometry width="230" height="120" as="geometry" />
        </mxCell>
        <mxCell id="491mZs6GS_H7Q8-jerja-91" value="" style="sketch=0;points=[[0,0,0],[0.25,0,0],[0.5,0,0],[0.75,0,0],[1,0,0],[0,1,0],[0.25,1,0],[0.5,1,0],[0.75,1,0],[1,1,0],[0,0.25,0],[0,0.5,0],[0,0.75,0],[1,0.25,0],[1,0.5,0],[1,0.75,0]];outlineConnect=0;fontColor=#232F3E;fillColor=#ED7100;strokeColor=#ffffff;dashed=0;verticalLabelPosition=bottom;verticalAlign=top;align=center;html=1;fontSize=12;fontStyle=0;aspect=fixed;shape=mxgraph.aws4.resourceIcon;resIcon=mxgraph.aws4.lambda;" parent="tvD9chaPKlekloA3Q7MS-14" vertex="1">
          <mxGeometry x="175" y="42" width="35" height="35" as="geometry" />
        </mxCell>
        <mxCell id="f_mdxcud1vT5GyGsRlhA-32" style="edgeStyle=orthogonalEdgeStyle;rounded=0;orthogonalLoop=1;jettySize=auto;html=1;entryX=1;entryY=0.5;entryDx=0;entryDy=0;entryPerimeter=0;" parent="tvD9chaPKlekloA3Q7MS-14" source="491mZs6GS_H7Q8-jerja-91" target="7bjNdaqAAWJVMaRxxmvR-1" edge="1">
          <mxGeometry relative="1" as="geometry" />
        </mxCell>
        <mxCell id="f_mdxcud1vT5GyGsRlhA-30" style="edgeStyle=orthogonalEdgeStyle;rounded=0;orthogonalLoop=1;jettySize=auto;html=1;entryX=0;entryY=0.5;entryDx=0;entryDy=0;entryPerimeter=0;" parent="tvD9chaPKlekloA3Q7MS-14" source="f_mdxcud1vT5GyGsRlhA-26" target="7bjNdaqAAWJVMaRxxmvR-1" edge="1">
          <mxGeometry relative="1" as="geometry">
            <mxPoint x="71.08052631578926" y="67.5333333333333" as="targetPoint" />
          </mxGeometry>
        </mxCell>
        <mxCell id="tvD9chaPKlekloA3Q7MS-6" value="" style="group" vertex="1" connectable="0" parent="tvD9chaPKlekloA3Q7MS-14">
          <mxGeometry x="5.5" y="42" width="70" height="60" as="geometry" />
        </mxCell>
        <mxCell id="f_mdxcud1vT5GyGsRlhA-26" value="" style="sketch=0;points=[[0,0,0],[0.25,0,0],[0.5,0,0],[0.75,0,0],[1,0,0],[0,1,0],[0.25,1,0],[0.5,1,0],[0.75,1,0],[1,1,0],[0,0.25,0],[0,0.5,0],[0,0.75,0],[1,0.25,0],[1,0.5,0],[1,0.75,0]];outlineConnect=0;fontColor=#232F3E;fillColor=#E7157B;strokeColor=#ffffff;dashed=0;verticalLabelPosition=bottom;verticalAlign=top;align=center;html=1;fontSize=12;fontStyle=0;aspect=fixed;shape=mxgraph.aws4.resourceIcon;resIcon=mxgraph.aws4.sns;" parent="tvD9chaPKlekloA3Q7MS-6" vertex="1">
          <mxGeometry x="17.5" width="35" height="35" as="geometry" />
        </mxCell>
        <mxCell id="tvD9chaPKlekloA3Q7MS-5" value="&lt;font style=&quot;font-size: 9px;&quot;&gt;SNS Topic&lt;/font&gt;" style="text;html=1;align=center;verticalAlign=middle;resizable=0;points=[];autosize=1;strokeColor=none;fillColor=none;" vertex="1" parent="tvD9chaPKlekloA3Q7MS-6">
          <mxGeometry y="30" width="70" height="30" as="geometry" />
        </mxCell>
        <mxCell id="tvD9chaPKlekloA3Q7MS-15" value="" style="group" vertex="1" connectable="0" parent="tvD9chaPKlekloA3Q7MS-14">
          <mxGeometry x="96" y="42" width="40" height="59" as="geometry" />
        </mxCell>
        <mxCell id="tvD9chaPKlekloA3Q7MS-7" value="&lt;font style=&quot;font-size: 9px;&quot;&gt;SQS&lt;/font&gt;" style="text;html=1;align=center;verticalAlign=middle;resizable=0;points=[];autosize=1;strokeColor=none;fillColor=none;" vertex="1" parent="tvD9chaPKlekloA3Q7MS-15">
          <mxGeometry y="29" width="40" height="30" as="geometry" />
        </mxCell>
        <mxCell id="7bjNdaqAAWJVMaRxxmvR-1" value="" style="sketch=0;points=[[0,0,0],[0.25,0,0],[0.5,0,0],[0.75,0,0],[1,0,0],[0,1,0],[0.25,1,0],[0.5,1,0],[0.75,1,0],[1,1,0],[0,0.25,0],[0,0.5,0],[0,0.75,0],[1,0.25,0],[1,0.5,0],[1,0.75,0]];outlineConnect=0;fontColor=#232F3E;fillColor=#E7157B;strokeColor=#ffffff;dashed=0;verticalLabelPosition=bottom;verticalAlign=top;align=center;html=1;fontSize=12;fontStyle=0;aspect=fixed;shape=mxgraph.aws4.resourceIcon;resIcon=mxgraph.aws4.sqs;" parent="tvD9chaPKlekloA3Q7MS-15" vertex="1">
          <mxGeometry x="2" width="35" height="35" as="geometry" />
        </mxCell>
        <mxCell id="tvD9chaPKlekloA3Q7MS-8" value="&lt;div style=&quot;line-height: 90%;&quot;&gt;&lt;font style=&quot;line-height: 90%; font-size: 9px;&quot;&gt;Event&lt;/font&gt;&lt;div&gt;&lt;font style=&quot;line-height: 90%; font-size: 9px;&quot;&gt;Handler&lt;/font&gt;&lt;/div&gt;&lt;/div&gt;" style="text;html=1;align=center;verticalAlign=middle;resizable=0;points=[];autosize=1;strokeColor=none;fillColor=none;" vertex="1" parent="1">
          <mxGeometry x="1023" y="358" width="60" height="40" as="geometry" />
        </mxCell>
        <mxCell id="tvD9chaPKlekloA3Q7MS-1" style="edgeStyle=orthogonalEdgeStyle;rounded=0;orthogonalLoop=1;jettySize=auto;html=1;entryX=0;entryY=0.5;entryDx=0;entryDy=0;entryPerimeter=0;" edge="1" parent="1" target="f_mdxcud1vT5GyGsRlhA-26">
          <mxGeometry relative="1" as="geometry">
            <mxPoint x="823" y="250" as="sourcePoint" />
            <Array as="points">
              <mxPoint x="850" y="250" />
              <mxPoint x="850" y="350" />
              <mxPoint x="882" y="350" />
            </Array>
          </mxGeometry>
        </mxCell>
        <mxCell id="tvD9chaPKlekloA3Q7MS-17" style="edgeStyle=orthogonalEdgeStyle;rounded=0;orthogonalLoop=1;jettySize=auto;html=1;entryX=0;entryY=0.5;entryDx=0;entryDy=0;entryPerimeter=0;" edge="1" parent="1" source="f_mdxcud1vT5GyGsRlhA-46" target="491mZs6GS_H7Q8-jerja-59">
          <mxGeometry relative="1" as="geometry">
            <Array as="points">
              <mxPoint x="960" y="250" />
              <mxPoint x="960" y="148" />
            </Array>
          </mxGeometry>
        </mxCell>
      </root>
    </mxGraphModel>
  </diagram>
</mxfile>
